<svg xmlns="http://www.w3.org/2000/svg" xml:space="preserve" viewBox="0 0 1677.34 5439.76" class="h-full w-auto" shape-rendering="geometricPrecision" text-rendering="geometricPrecision" image-rendering="optimizeQuality" fill-rule="evenodd" clip-rule="evenodd"><defs><style>
                  .str0 {stroke:#727271;stroke-width:7.74;stroke-miterlimit:22.9256}
                  .fil4 {fill:none}
                  .fil3 {fill:#727271}
                  .fil0 {fill:#C5C6C6}
                  .fil2 {fill:#E95229}
                  .fil1 {fill:#FEFEFE}
                  .fil5 {fill:#8E9091;fill-rule:nonzero}
                </style></defs><g id="Camada_x0020_1"><polygon class="fil0" points="1053.67,197.45 1053.67,4606.23 896.44,4606.23 896.44,197.45 "></polygon><polygon class="fil1 str0" points="190.44,3192.84 190.44,2748.5 638.42,2475.36 190.44,2202.19 190.44,1757.85 1465.2,1757.85 1465.2,2182.15 833.29,2182.15 1286.73,2475.36 1286.73,2482.64 833.29,2775.8 1465.2,2775.8 1465.2,3192.84 "></polygon><polygon class="fil2" points="1179.97,197.45 1179.97,4606.23 1122.43,4606.23 1122.43,197.45 "></polygon><path class="fil3" d="M831.47 4538.63l-3.65 0c-380.6,0 -664.7,-296.85 -664.7,-677.42 0,-280.46 136.6,-469.84 331.43,-577.3l205.81 351.48c-91.08,47.32 -154.82,114.72 -154.82,231.28 0,143.85 125.67,238.55 278.64,238.55l3.65 0c165.71,0 282.25,-98.3 282.25,-238.52 0,-120.22 -65.56,-187.59 -160.22,-240.4l198.46 -351.46c189.38,107.43 344.2,285.9 344.2,602.77 0,353.3 -265.89,661.04 -661.05,661.04l0.01 -0.02z"></path><path class="fil1" d="M1273.99 1717.78l-271.36 -227.64c105.66,-138.39 149.31,-296.83 149.31,-446.16 0,-76.48 -19.99,-109.27 -54.62,-109.27l-3.61 0c-36.44,0 -56.48,40.07 -83.8,176.64 -58.24,285.91 -140.23,537.24 -409.72,537.24l-3.65 0c-242.21,0 -429.79,-189.4 -429.79,-540.87 0,-245.83 58.29,-427.93 174.83,-575.45l287.74 207.6c-87.41,120.17 -125.66,264.06 -125.66,382.41 0,63.75 21.85,92.88 52.82,92.88l3.63 0c34.58,0 56.44,-34.6 81.95,-169.35 60.09,-325.97 154.79,-544.52 411.55,-544.52l3.66 0c267.69,0 431.61,220.38 431.61,562.73 0,258.6 -72.85,491.69 -214.9,653.77l0.01 -0z"></path><path class="fil4 str0" d="M1273.99 1717.78l-271.36 -227.64c105.66,-138.39 149.31,-296.83 149.31,-446.16 0,-76.48 -19.99,-109.27 -54.62,-109.27l-3.61 0c-36.44,0 -56.48,40.07 -83.8,176.64 -58.24,285.91 -140.23,537.24 -409.72,537.24l-3.65 0c-242.21,0 -429.79,-189.4 -429.79,-540.87 0,-245.83 58.29,-427.93 174.83,-575.45l287.74 207.6c-87.41,120.17 -125.66,264.06 -125.66,382.41 0,63.75 21.85,92.88 52.82,92.88l3.63 0c34.58,0 56.44,-34.6 81.95,-169.35 60.09,-325.97 154.79,-544.52 411.55,-544.52l3.66 0c267.69,0 431.61,220.38 431.61,562.73 0,258.6 -72.85,491.69 -214.9,653.77l0.01 -0z"></path><polygon class="fil2" points="359.45,197.45 166.76,197.45 166.76,390.15 359.45,390.15 "></polygon><rect class="fil4" width="1677.34" height="5439.76"></rect><path class="fil5" d="M237.07 5244.45c0,21.07 -4.41,39.62 -13.24,55.67 -8.83,16.05 -21.62,28.54 -38.37,37.47 -16.75,8.93 -36.66,13.39 -59.74,13.39l-75.54 0 0 -212.47 75.54 0c23.07,0 42.98,4.36 59.74,13.09 16.75,8.73 29.54,21.07 38.37,37.02 8.83,15.95 13.24,34.56 13.24,55.82zm-114.96 68.62c22.87,0 40.58,-6.02 53.12,-18.06 12.54,-12.04 18.81,-28.89 18.81,-50.56 0,-21.87 -6.27,-38.82 -18.81,-50.86 -12.54,-12.04 -30.24,-18.06 -53.12,-18.06l-29.49 0 0 137.53 29.49 0zm189.29 -140.84l0 55.07 75.24 0 0 32.5 -75.24 0 0 57.18 84.26 0 0 34.01 -126.7 0 0 -212.47 126.7 0 0 33.71 -84.26 0zm261.52 120.68c0,10.83 -2.71,20.81 -8.13,29.94 -5.42,9.13 -13.44,16.45 -24.07,21.97 -10.63,5.52 -23.57,8.28 -38.82,8.28 -15.05,0 -28.49,-2.56 -40.33,-7.67 -11.84,-5.12 -21.32,-12.49 -28.44,-22.12 -7.12,-9.63 -11.19,-20.87 -12.19,-33.71l45.14 0c1,8.63 4.46,15.8 10.38,21.52 5.92,5.72 13.79,8.58 23.62,8.58 8.83,0 15.6,-2.36 20.31,-7.07 4.71,-4.71 7.07,-10.78 7.07,-18.21 0,-6.62 -1.91,-12.09 -5.72,-16.4 -3.81,-4.31 -8.63,-7.78 -14.44,-10.38 -5.82,-2.61 -13.84,-5.62 -24.07,-9.03 -13.24,-4.41 -24.08,-8.78 -32.5,-13.09 -8.43,-4.31 -15.6,-10.58 -21.52,-18.81 -5.92,-8.22 -8.88,-18.96 -8.88,-32.2 0,-18.26 6.57,-32.65 19.71,-43.18 13.14,-10.53 30.55,-15.8 52.21,-15.8 22.47,0 40.38,5.42 53.72,16.25 13.34,10.84 20.91,25.28 22.72,43.34l-45.74 0c-1.2,-7.62 -4.41,-13.89 -9.63,-18.81 -5.22,-4.92 -12.34,-7.37 -21.37,-7.37 -7.83,0 -14.15,2.06 -18.96,6.17 -4.82,4.11 -7.22,10.08 -7.22,17.91 0,6.22 1.86,11.38 5.57,15.5 3.71,4.11 8.43,7.47 14.14,10.08 5.72,2.61 13.49,5.52 23.32,8.73 13.64,4.82 24.73,9.33 33.25,13.54 8.53,4.21 15.8,10.53 21.82,18.96 6.02,8.43 9.03,19.46 9.03,33.1zm218.18 -48.45c0,21.07 -4.41,39.62 -13.24,55.67 -8.83,16.05 -21.62,28.54 -38.37,37.47 -16.75,8.93 -36.66,13.39 -59.74,13.39l-75.54 0 0 -212.47 75.54 0c23.07,0 42.98,4.36 59.74,13.09 16.75,8.73 29.54,21.07 38.37,37.02 8.83,15.95 13.24,34.56 13.24,55.82zm-114.96 68.62c22.87,0 40.58,-6.02 53.12,-18.06 12.54,-12.04 18.81,-28.89 18.81,-50.56 0,-21.87 -6.27,-38.82 -18.81,-50.86 -12.54,-12.04 -30.24,-18.06 -53.12,-18.06l-29.49 0 0 137.53 29.49 0zm189.29 -140.84l0 55.07 75.24 0 0 32.5 -75.24 0 0 57.18 84.26 0 0 34.01 -126.7 0 0 -212.47 126.7 0 0 33.71 -84.26 0zm165.52 6.02l0 -39.73 76.44 0 0 212.47 -44.54 0 0 -172.74 -31.9 0zm154.69 109.54c3.21,20.86 14.04,31.3 32.5,31.3 14.04,0 24.18,-6.17 30.4,-18.51 6.22,-12.34 8.93,-31.65 8.13,-57.93 -3.21,9.63 -9.48,17.3 -18.81,23.02 -9.33,5.72 -20.21,8.58 -32.65,8.58 -20.46,0 -36.56,-6.17 -48.3,-18.51 -11.74,-12.34 -17.61,-29.84 -17.61,-52.51 0,-13.84 2.81,-26.23 8.43,-37.17 5.62,-10.94 14,-19.51 25.13,-25.73 11.14,-6.22 24.63,-9.33 40.48,-9.33 30.9,0 52.16,9.38 63.8,28.14 11.64,18.76 17.45,44.79 17.45,78.09 0,37.92 -5.87,66.71 -17.6,86.37 -11.74,19.66 -31.35,29.49 -58.83,29.49 -14.65,0 -27.24,-2.91 -37.77,-8.73 -10.53,-5.82 -18.66,-13.69 -24.38,-23.62 -5.72,-9.93 -9.08,-20.91 -10.08,-32.95l39.73 0zm67.41 -81.56c0,-11.23 -3.26,-20.51 -9.78,-27.84 -6.52,-7.32 -16.1,-10.99 -28.74,-10.99 -10.83,0 -19.46,3.21 -25.88,9.63 -6.42,6.42 -9.63,15.35 -9.63,26.78 0,12.04 3.26,21.32 9.78,27.84 6.52,6.52 15.3,9.78 26.33,9.78 10.23,0 19.11,-3.06 26.63,-9.18 7.52,-6.12 11.29,-14.8 11.29,-26.03zm114.36 81.56c3.21,20.86 14.04,31.3 32.5,31.3 14.04,0 24.18,-6.17 30.4,-18.51 6.22,-12.34 8.93,-31.65 8.13,-57.93 -3.21,9.63 -9.48,17.3 -18.81,23.02 -9.33,5.72 -20.21,8.58 -32.65,8.58 -20.46,0 -36.56,-6.17 -48.3,-18.51 -11.74,-12.34 -17.61,-29.84 -17.61,-52.51 0,-13.84 2.81,-26.23 8.43,-37.17 5.62,-10.94 14,-19.51 25.13,-25.73 11.14,-6.22 24.63,-9.33 40.48,-9.33 30.9,0 52.16,9.38 63.8,28.14 11.64,18.76 17.45,44.79 17.45,78.09 0,37.92 -5.87,66.71 -17.6,86.37 -11.74,19.66 -31.35,29.49 -58.83,29.49 -14.65,0 -27.24,-2.91 -37.77,-8.73 -10.53,-5.82 -18.66,-13.69 -24.38,-23.62 -5.72,-9.93 -9.08,-20.91 -10.08,-32.95l39.73 0zm67.41 -81.56c0,-11.23 -3.26,-20.51 -9.78,-27.84 -6.52,-7.32 -16.1,-10.99 -28.74,-10.99 -10.83,0 -19.46,3.21 -25.88,9.63 -6.42,6.42 -9.63,15.35 -9.63,26.78 0,12.04 3.26,21.32 9.78,27.84 6.52,6.52 15.3,9.78 26.33,9.78 10.23,0 19.11,-3.06 26.63,-9.18 7.52,-6.12 11.29,-14.8 11.29,-26.03zm66.51 111.35c68.01,-47.15 102.02,-86.27 102.02,-117.37 0,-9.43 -2.26,-16.85 -6.77,-22.27 -4.51,-5.42 -11.59,-8.13 -21.22,-8.13 -19.86,0 -30.4,13.54 -31.6,40.63l-41.23 0c1.2,-25.08 8.83,-44.09 22.87,-57.03 14.04,-12.94 31.8,-19.41 53.27,-19.41 21.87,0 38.67,5.67 50.41,17 11.74,11.33 17.61,26.43 17.61,45.29 0,14.85 -4.36,29.74 -13.09,44.69 -8.73,14.95 -19.81,28.69 -33.25,41.23 -13.44,12.54 -27.59,23.32 -42.43,32.35l92.99 0 0 34.61 -149.57 0 0 -31.6z"></path></g></svg>
