<?xml version="1.0" standalone="no"?>
<!DOCTYPE svg PUBLIC "-//W3C//DTD SVG 20010904//EN"
 "http://www.w3.org/TR/2001/REC-SVG-20010904/DTD/svg10.dtd">
<svg version="1.0" xmlns="http://www.w3.org/2000/svg"
 width="706.000000pt" height="550.000000pt" viewBox="0 0 706.000000 550.000000"
 preserveAspectRatio="xMidYMid meet">

<g transform="translate(0.000000,550.000000) scale(0.100000,-0.100000)"
fill="#000000" stroke="none">
<path d="M3240 5119 c-91 -5 -196 -14 -235 -19 -38 -6 -114 -15 -167 -20 -54
-5 -106 -13 -115 -19 -10 -5 -45 -12 -78 -16 -33 -4 -76 -11 -95 -17 -19 -6
-64 -17 -100 -24 -81 -16 -176 -39 -215 -53 -72 -24 -163 -51 -176 -51 -8 -1
-32 -9 -54 -20 -22 -11 -45 -19 -52 -20 -7 0 -27 -6 -45 -14 -18 -8 -58 -24
-88 -36 -30 -12 -75 -31 -100 -42 -25 -11 -61 -27 -80 -35 -19 -9 -42 -20 -50
-24 -8 -4 -60 -31 -115 -59 -55 -28 -113 -60 -130 -70 -16 -11 -43 -26 -60
-35 -128 -65 -390 -272 -540 -427 -206 -211 -330 -393 -415 -608 -12 -30 -28
-69 -35 -86 -8 -18 -17 -49 -21 -70 -4 -22 -11 -47 -16 -56 -18 -35 -41 -238
-45 -398 -4 -120 -1 -198 11 -285 20 -144 52 -298 72 -343 8 -18 14 -38 14
-45 0 -36 122 -298 178 -381 18 -26 32 -49 32 -52 0 -8 73 -109 134 -184 133
-165 368 -376 540 -487 39 -25 82 -53 96 -62 44 -28 64 -40 95 -56 17 -9 62
-34 100 -55 39 -22 77 -42 85 -45 8 -4 29 -12 45 -20 17 -7 50 -22 75 -33 25
-11 61 -27 80 -36 39 -17 108 -42 157 -57 18 -5 45 -16 60 -24 15 -8 34 -15
42 -15 13 0 102 -26 176 -51 37 -13 128 -35 220 -54 39 -8 86 -18 105 -24 19
-5 62 -12 94 -16 33 -4 71 -11 85 -17 14 -5 71 -14 126 -18 55 -5 136 -14 180
-21 111 -18 988 -18 1100 -1 44 7 126 17 183 22 56 5 117 14 135 19 17 6 70
17 117 25 123 21 312 63 381 84 19 6 64 20 100 31 36 12 71 21 78 21 7 0 27 7
44 15 35 15 103 41 154 56 18 5 35 14 38 19 4 6 13 10 21 10 23 0 310 137 379
181 17 10 41 25 55 32 26 12 141 87 150 97 9 10 69 50 75 50 8 0 152 116 204
164 115 110 141 136 202 206 126 145 210 271 289 430 23 47 48 98 56 113 8 16
14 34 14 40 1 7 9 30 20 52 11 22 19 48 20 58 0 11 7 33 15 50 8 18 19 57 24
87 5 30 14 72 19 94 6 21 16 121 23 221 13 188 2 445 -22 540 -6 22 -15 60
-20 85 -6 25 -17 59 -25 77 -8 17 -14 34 -14 39 0 17 -52 135 -89 205 -23 41
-46 86 -52 102 -6 15 -14 27 -19 27 -4 0 -13 14 -20 30 -7 17 -16 30 -21 30
-5 0 -9 5 -9 11 0 19 -150 198 -243 292 -90 89 -173 164 -220 196 -12 8 -33
25 -47 38 -14 12 -42 33 -62 47 -21 14 -50 34 -65 45 -153 107 -358 217 -598
321 -27 12 -59 26 -70 31 -25 11 -99 37 -142 50 -18 5 -45 16 -60 24 -15 8
-36 15 -45 15 -10 0 -35 6 -55 14 -60 22 -143 47 -208 63 -112 26 -180 41
-240 53 -33 7 -99 21 -147 31 -48 10 -105 19 -127 19 -23 0 -80 7 -128 15 -95
15 -493 36 -657 34 -56 -1 -175 -6 -266 -10z m620 -119 c349 -19 711 -79 1025
-171 39 -11 88 -25 110 -31 22 -5 54 -16 72 -24 17 -8 35 -14 39 -14 9 0 96
-32 149 -55 17 -7 75 -32 130 -55 85 -36 187 -87 345 -172 113 -61 280 -179
280 -197 0 -10 -152 -70 -265 -104 -167 -50 -399 -87 -546 -87 -95 0 -240 17
-349 42 -146 32 -236 59 -282 84 -14 8 -31 14 -37 14 -6 0 -44 15 -83 34 -164
78 -270 113 -484 160 -95 21 -415 22 -494 2 -30 -8 -74 -17 -98 -21 -24 -4
-56 -13 -70 -21 -15 -8 -33 -14 -41 -14 -29 0 -198 -89 -276 -145 l-79 -57
-98 -9 c-54 -4 -103 -11 -107 -14 -5 -2 -37 -11 -72 -19 -35 -8 -113 -28 -174
-45 -178 -49 -339 -43 -580 24 -27 7 -66 16 -85 20 -19 3 -44 10 -55 15 -19 8
-83 27 -180 51 -22 5 -54 16 -72 24 -17 8 -37 15 -45 15 -8 0 -52 14 -98 31
-47 16 -100 35 -117 40 -57 17 -42 45 59 104 216 127 440 245 465 245 3 0 24
8 47 19 71 32 98 43 196 78 169 60 369 117 505 145 28 5 73 16 100 23 28 7 75
16 105 20 30 3 89 13 130 20 243 45 685 64 1030 45z m-20 -680 c19 -6 64 -15
100 -19 75 -10 181 -36 227 -57 17 -8 36 -14 43 -14 7 0 28 -7 48 -16 21 -9
57 -25 82 -36 25 -11 59 -25 75 -33 69 -31 128 -55 139 -55 6 -1 29 -9 51 -20
22 -11 50 -19 63 -20 12 0 38 -6 56 -14 18 -7 57 -17 87 -21 30 -4 79 -13 109
-21 39 -10 120 -14 285 -14 165 0 246 4 285 14 30 8 80 17 110 21 30 4 72 14
94 21 21 8 48 14 60 14 11 1 39 9 61 20 22 11 48 19 58 20 11 0 31 6 45 14 15
7 43 19 62 26 81 29 101 37 112 48 7 7 24 12 39 12 46 0 290 -250 396 -405 69
-102 163 -279 163 -307 0 -8 6 -21 14 -27 8 -7 17 -28 21 -49 4 -20 13 -48 21
-63 7 -15 15 -58 16 -95 l3 -69 -57 -11 c-31 -6 -65 -15 -75 -19 -10 -4 -45
-13 -78 -20 -33 -7 -94 -23 -135 -35 -41 -11 -95 -26 -120 -32 -25 -5 -49 -14
-55 -18 -5 -5 -28 -11 -50 -15 -22 -4 -53 -13 -70 -20 -16 -6 -64 -22 -105
-34 -41 -13 -88 -29 -103 -37 -16 -8 -36 -14 -45 -14 -10 0 -34 -9 -55 -20
-20 -11 -42 -20 -49 -20 -12 0 -80 -25 -153 -55 -16 -7 -55 -23 -85 -35 -30
-12 -73 -31 -96 -41 -73 -34 -71 -35 -238 116 -13 11 -49 43 -81 70 -51 43
-248 214 -340 294 -17 14 -75 64 -130 111 -55 47 -102 87 -105 90 -3 3 -30 25
-60 50 -30 25 -57 48 -60 51 -5 7 -53 47 -243 200 -118 95 -213 158 -287 190
-49 21 -70 24 -185 24 l-130 -1 -80 -39 c-97 -48 -98 -48 -310 -210 -247 -190
-276 -207 -390 -224 -137 -21 -295 23 -295 82 0 24 87 122 300 340 162 167
279 260 395 316 28 13 58 28 68 33 45 22 165 58 197 58 19 1 62 7 95 14 73 17
237 20 285 6z m-2722 -105 c30 -17 57 -26 257 -91 77 -25 148 -50 158 -55 10
-6 37 -14 60 -19 23 -5 76 -19 117 -31 41 -11 98 -26 125 -31 28 -6 70 -17 95
-24 25 -8 109 -20 187 -26 153 -13 285 -3 385 27 169 52 198 58 217 46 16 -10
16 -10 -148 -187 -36 -38 -88 -94 -116 -124 -57 -61 -85 -109 -85 -145 0 -33
31 -90 61 -113 121 -94 401 -121 519 -52 8 5 33 18 56 30 37 18 128 80 164
112 34 29 106 85 130 100 14 9 34 24 45 35 20 19 103 70 173 107 137 73 258
74 387 4 45 -24 189 -126 220 -155 11 -10 56 -48 100 -83 44 -36 87 -72 95
-80 9 -8 40 -35 70 -60 30 -25 102 -85 160 -135 58 -49 130 -111 160 -136 30
-26 71 -62 91 -80 20 -19 61 -54 90 -79 119 -100 164 -140 203 -175 13 -11 51
-45 86 -75 125 -107 156 -139 179 -185 69 -139 -69 -285 -248 -260 -53 7 -88
32 -216 154 -82 76 -166 152 -244 219 -30 26 -74 64 -97 85 -52 46 -94 51 -94
10 0 -22 45 -73 239 -268 132 -132 245 -253 250 -268 29 -75 -4 -171 -73 -215
-99 -64 -167 -77 -241 -46 -22 9 -95 71 -174 148 -200 196 -261 247 -291 244
-35 -4 -36 -37 -3 -73 16 -16 66 -73 112 -125 46 -52 111 -124 144 -160 70
-77 91 -120 82 -167 -11 -60 -100 -129 -171 -133 -101 -7 -107 -4 -185 71
-225 216 -298 277 -318 265 -5 -3 -11 -15 -14 -26 -5 -21 14 -49 89 -131 22
-24 69 -75 105 -114 35 -38 67 -71 71 -73 4 -2 8 -16 8 -31 0 -21 -9 -31 -42
-50 -39 -20 -53 -22 -143 -18 -104 4 -189 27 -221 59 -16 15 -15 22 1 91 10
41 15 90 12 108 -13 80 -28 134 -42 149 -8 9 -15 22 -15 28 0 21 -96 109 -146
134 -27 14 -75 28 -106 32 -32 4 -62 14 -71 24 -9 9 -20 52 -26 94 -12 84 -34
134 -82 186 -68 72 -219 117 -316 94 l-48 -11 -61 62 c-47 49 -76 69 -131 91
-65 26 -79 28 -165 24 -69 -4 -103 -11 -133 -27 -47 -25 -78 -27 -96 -5 -35
43 -158 94 -224 94 -37 0 -137 -29 -156 -46 -8 -8 -21 -14 -28 -14 -6 0 -14
-7 -17 -15 -9 -22 -31 -18 -78 13 -49 33 -247 130 -331 162 -33 13 -73 28 -90
35 -39 16 -92 34 -135 46 -19 6 -48 16 -65 23 -16 8 -50 19 -75 25 -25 7 -76
21 -115 32 -38 11 -89 24 -112 29 -23 5 -63 16 -90 24 -26 8 -93 24 -148 36
-55 12 -114 28 -132 36 -17 8 -39 14 -50 14 -10 0 -24 4 -32 9 -24 15 3 144
53 256 35 77 93 194 117 230 75 117 91 140 131 188 91 109 190 212 284 294 64
57 102 66 152 38z m-678 -1160 c102 -22 161 -35 220 -51 30 -8 75 -19 100 -24
25 -6 77 -19 115 -31 39 -11 88 -24 109 -30 66 -17 359 -117 391 -133 17 -9
37 -16 45 -16 9 0 20 -4 25 -9 6 -5 39 -21 75 -37 91 -40 200 -104 201 -117 0
-7 1 -64 2 -127 2 -102 5 -120 26 -155 60 -99 133 -149 243 -166 98 -15 114
-22 122 -55 21 -81 98 -167 196 -215 53 -26 80 -33 146 -37 l81 -4 31 -48 c37
-56 114 -110 202 -141 50 -17 76 -20 126 -16 61 6 64 5 81 -21 40 -59 134
-143 190 -168 48 -22 73 -27 148 -27 78 -1 98 3 150 27 33 15 74 39 92 52 17
13 37 24 44 24 11 0 77 -27 119 -50 9 -4 55 -15 103 -25 81 -16 93 -16 172 -1
89 16 119 30 173 80 32 30 36 31 130 31 90 1 101 4 160 35 72 38 166 135 175
179 6 27 8 28 90 34 89 6 184 42 237 90 48 43 98 112 105 147 4 19 13 50 21
68 12 30 16 32 61 32 128 2 246 64 312 165 24 37 26 48 26 151 0 82 -4 115
-15 128 -12 16 -11 20 10 37 14 10 43 25 65 33 22 8 65 24 95 36 106 41 339
121 470 160 41 12 90 28 108 36 18 8 38 14 45 14 7 0 41 9 77 19 36 11 103 30
150 41 47 12 108 28 135 35 28 8 73 18 100 24 74 15 78 6 71 -149 -7 -146 -46
-331 -91 -435 -7 -16 -23 -55 -36 -85 -13 -30 -29 -62 -36 -71 -7 -8 -13 -20
-13 -25 0 -13 -136 -218 -186 -281 -64 -80 -247 -257 -346 -335 -122 -96 -265
-195 -313 -217 -11 -5 -54 -29 -95 -53 -97 -57 -254 -132 -370 -178 -30 -12
-68 -28 -85 -35 -16 -8 -77 -29 -135 -48 -96 -31 -145 -47 -295 -91 -27 -8
-68 -17 -90 -21 -22 -4 -62 -13 -90 -20 -27 -8 -79 -19 -115 -25 -36 -7 -85
-15 -110 -20 -263 -46 -639 -74 -901 -67 -215 7 -497 28 -614 47 -382 61 -559
104 -890 217 -75 25 -192 73 -295 121 -533 244 -930 579 -1161 977 -65 112
-109 225 -164 419 -18 63 -33 342 -21 390 7 30 9 30 96 11z m1662 -381 c47 -8
108 -67 128 -126 20 -54 36 -55 92 -2 90 84 197 106 299 60 30 -13 64 -34 75
-47 26 -29 54 -82 54 -103 0 -8 4 -26 10 -41 l10 -26 32 23 c18 13 35 26 38
29 12 16 98 31 145 24 114 -15 187 -83 200 -185 6 -53 -4 -157 -19 -191 -4
-10 -1 -23 9 -32 14 -14 19 -14 50 -1 44 18 146 18 191 -1 120 -50 186 -174
162 -304 -14 -80 -89 -173 -150 -186 -15 -4 -30 -11 -33 -16 -12 -18 -130 -10
-180 12 -89 39 -165 145 -165 230 0 9 -7 22 -15 29 -12 10 -21 8 -47 -12 -18
-13 -53 -32 -77 -42 -41 -16 -47 -16 -95 0 -124 40 -171 91 -191 206 -3 21 -9
39 -13 42 -5 3 -36 -8 -70 -25 -74 -35 -94 -36 -158 -8 -68 31 -109 64 -137
112 -27 48 -51 154 -42 190 9 34 -26 42 -60 15 -32 -25 -128 -35 -177 -19 -42
14 -86 53 -116 102 -34 56 -31 141 7 201 55 86 122 112 243 92z"/>
</g>
</svg>
